<?xml version="1.0" encoding="UTF-8" standalone="no"?>
<!DOCTYPE svg PUBLIC "-//W3C//DTD SVG 1.1//EN"
 "http://www.w3.org/Graphics/SVG/1.1/DTD/svg11.dtd">
<!-- Generated by graphviz version 2.40.1 (20161225.0304)
 -->
<!-- Title: G Pages: 1 -->
<svg width="325pt" height="386pt"
 viewBox="0.00 0.00 325.35 386.00" xmlns="http://www.w3.org/2000/svg" xmlns:xlink="http://www.w3.org/1999/xlink">
<g id="graph0" class="graph" transform="scale(1 1) rotate(0) translate(4 382)">
<title>G</title>
<polygon fill="#ffffff" stroke="transparent" points="-4,4 -4,-382 321.348,-382 321.348,4 -4,4"/>
<!-- A0 -->
<g id="node1" class="node">
<title>A0</title>
<polygon fill="#fff8dc" stroke="#000000" points="108.5444,-378 .1516,-378 .1516,-342 114.5444,-342 114.5444,-372 108.5444,-378"/>
<polyline fill="none" stroke="#000000" points="108.5444,-378 108.5444,-372 "/>
<polyline fill="none" stroke="#000000" points="114.5444,-372 108.5444,-372 "/>
<text text-anchor="middle" x="57.348" y="-363" font-family="Helvetica,sans-Serif" font-size="10.00" fill="#000000">You can stick notes</text>
<text text-anchor="middle" x="57.348" y="-351" font-family="Helvetica,sans-Serif" font-size="10.00" fill="#000000">on diagrams too!</text>
</g>
<!-- A1 -->
<g id="node2" class="node">
<title>A1</title>
<polygon fill="none" stroke="#000000" points="204.1818,-378 132.5142,-378 132.5142,-342 204.1818,-342 204.1818,-378"/>
<text text-anchor="middle" x="168.348" y="-357" font-family="Helvetica,sans-Serif" font-size="10.00" fill="#000000">Customer</text>
</g>
<!-- A2 -->
<g id="node3" class="node">
<title>A2</title>
<polygon fill="none" stroke="#000000" points="195.348,-292 141.348,-292 141.348,-256 195.348,-256 195.348,-292"/>
<text text-anchor="middle" x="168.348" y="-271" font-family="Helvetica,sans-Serif" font-size="10.00" fill="#000000">Order</text>
</g>
<!-- A1&#45;&gt;A2 -->
<g id="edge1" class="edge">
<title>A1&#45;&gt;A2</title>
<path fill="none" stroke="#000000" d="M168.348,-329.5205C168.348,-320.6543 168.348,-311.01 168.348,-302.2849"/>
<polygon fill="none" stroke="#000000" points="168.3481,-329.7616 172.348,-335.7616 168.348,-341.7616 164.348,-335.7616 168.3481,-329.7616"/>
<polygon fill="#000000" stroke="#000000" points="168.348,-292.2121 172.8481,-302.2121 168.348,-297.2121 168.3481,-302.2121 168.3481,-302.2121 168.3481,-302.2121 168.348,-297.2121 163.8481,-302.2121 168.348,-292.2121 168.348,-292.2121"/>
<text text-anchor="middle" x="176.8004" y="-307.3383" font-family="Helvetica,sans-Serif" font-size="10.00" fill="#000000">orders 0..*</text>
<text text-anchor="middle" x="159.8956" y="-320.6355" font-family="Helvetica,sans-Serif" font-size="10.00" fill="#000000">1</text>
</g>
<!-- A3 -->
<g id="node4" class="node">
<title>A3</title>
<polygon fill="none" stroke="#000000" points="101.6909,-164 35.0051,-164 35.0051,-128 101.6909,-128 101.6909,-164"/>
<text text-anchor="middle" x="68.348" y="-143" font-family="Helvetica,sans-Serif" font-size="10.00" fill="#000000">LineItem</text>
</g>
<!-- A2&#45;&gt;A3 -->
<g id="edge2" class="edge">
<title>A2&#45;&gt;A3</title>
<path fill="none" stroke="#000000" d="M144.0461,-246.7209C133.4232,-234.4914 120.9864,-219.7511 110.348,-206 102.0813,-195.3146 93.4418,-183.1635 86.1629,-172.6039"/>
<polygon fill="#000000" stroke="#000000" points="144.2004,-246.897 151.1628,-248.7745 152.1076,-255.9234 145.1452,-254.046 144.2004,-246.897"/>
<polygon fill="#000000" stroke="#000000" points="80.4068,-164.1754 89.7626,-169.8955 83.2266,-168.3043 86.0465,-172.4333 86.0465,-172.4333 86.0465,-172.4333 83.2266,-168.3043 82.3304,-174.9712 80.4068,-164.1754 80.4068,-164.1754"/>
<text text-anchor="middle" x="97.6093" y="-171.377" font-family="Helvetica,sans-Serif" font-size="10.00" fill="#000000">*</text>
<text text-anchor="middle" x="133.8058" y="-244.8585" font-family="Helvetica,sans-Serif" font-size="10.00" fill="#000000">*</text>
</g>
<!-- A4 -->
<g id="node5" class="node">
<title>A4</title>
<polygon fill="none" stroke="#000000" points="217.297,-164 119.399,-164 119.399,-128 217.297,-128 217.297,-164"/>
<text text-anchor="middle" x="168.348" y="-143" font-family="Helvetica,sans-Serif" font-size="10.00" fill="#000000">DeliveryMethod</text>
</g>
<!-- A2&#45;&gt;A4 -->
<g id="edge3" class="edge">
<title>A2&#45;&gt;A4</title>
<path fill="none" stroke="#000000" d="M168.348,-255.9322C168.348,-234.8019 168.348,-199.5529 168.348,-174.6744"/>
<polygon fill="#000000" stroke="#000000" points="168.348,-164.3904 172.8481,-174.3903 168.348,-169.3904 168.3481,-174.3904 168.3481,-174.3904 168.3481,-174.3904 168.348,-169.3904 163.8481,-174.3904 168.348,-164.3904 168.348,-164.3904"/>
<text text-anchor="middle" x="176.8004" y="-179.5165" font-family="Helvetica,sans-Serif" font-size="10.00" fill="#000000">1</text>
</g>
<!-- A5 -->
<g id="node6" class="node">
<title>A5</title>
<polygon fill="none" stroke="#000000" points="235.348,-174 235.348,-206 317.348,-206 317.348,-174 235.348,-174"/>
<text text-anchor="start" x="259.121" y="-187" font-family="Helvetica,sans-Serif" font-size="10.00" fill="#000000">Product</text>
<polygon fill="none" stroke="#000000" points="235.348,-118 235.348,-174 317.348,-174 317.348,-118 235.348,-118"/>
<text text-anchor="start" x="251.342" y="-155" font-family="Helvetica,sans-Serif" font-size="10.00" fill="#000000">EAN_Code</text>
<text text-anchor="start" x="251.3475" y="-143" font-family="Helvetica,sans-Serif" font-size="10.00" fill="#000000">Description</text>
<text text-anchor="start" x="257.1815" y="-131" font-family="Helvetica,sans-Serif" font-size="10.00" fill="#000000">ListPrice</text>
<polygon fill="none" stroke="#000000" points="235.348,-86 235.348,-118 317.348,-118 317.348,-86 235.348,-86"/>
<text text-anchor="start" x="245.239" y="-99" font-family="Helvetica,sans-Serif" font-size="10.00" fill="#000000">promo_price()</text>
</g>
<!-- A2&#45;&gt;A5 -->
<g id="edge4" class="edge">
<title>A2&#45;&gt;A5</title>
<path fill="none" stroke="#000000" d="M183.9137,-255.8651C195.6242,-242.194 212.0457,-222.9642 226.348,-206 227.0691,-205.1447 227.7956,-204.2823 228.5264,-203.414"/>
<polygon fill="#000000" stroke="#000000" points="235.192,-195.4783 232.206,-206.0299 231.9762,-199.307 228.7603,-203.1356 228.7603,-203.1356 228.7603,-203.1356 231.9762,-199.307 225.3145,-200.2413 235.192,-195.4783 235.192,-195.4783"/>
<text text-anchor="middle" x="230.006" y="-211.7943" font-family="Helvetica,sans-Serif" font-size="10.00" fill="#000000">*</text>
<text text-anchor="middle" x="189.2821" y="-233.599" font-family="Helvetica,sans-Serif" font-size="10.00" fill="#000000">*</text>
</g>
<!-- A7 -->
<g id="node8" class="node">
<title>A7</title>
<polygon fill="none" stroke="#000000" points="154.5208,-36 90.1752,-36 90.1752,0 154.5208,0 154.5208,-36"/>
<text text-anchor="middle" x="122.348" y="-15" font-family="Helvetica,sans-Serif" font-size="10.00" fill="#000000">National</text>
</g>
<!-- A4&#45;&gt;A7 -->
<g id="edge6" class="edge">
<title>A4&#45;&gt;A7</title>
<path fill="none" stroke="#000000" d="M158.4175,-118.3673C149.5039,-93.5643 136.6706,-57.8541 128.957,-36.3904"/>
<polygon fill="none" stroke="#000000" points="155.1791,-119.7052 161.8549,-127.9322 161.7666,-117.3377 155.1791,-119.7052"/>
</g>
<!-- A8 -->
<g id="node9" class="node">
<title>A8</title>
<polygon fill="none" stroke="#000000" points="255.865,-36 172.831,-36 172.831,0 255.865,0 255.865,-36"/>
<text text-anchor="middle" x="214.348" y="-15" font-family="Helvetica,sans-Serif" font-size="10.00" fill="#000000">International</text>
</g>
<!-- A4&#45;&gt;A8 -->
<g id="edge7" class="edge">
<title>A4&#45;&gt;A8</title>
<path fill="none" stroke="#000000" d="M178.2785,-118.3673C187.1921,-93.5643 200.0254,-57.8541 207.739,-36.3904"/>
<polygon fill="none" stroke="#000000" points="174.9294,-117.3377 174.8411,-127.9322 181.5169,-119.7052 174.9294,-117.3377"/>
</g>
<!-- A6 -->
<g id="node7" class="node">
<title>A6</title>
<polygon fill="none" stroke="#000000" points="310.4124,-292 242.2836,-292 242.2836,-256 310.4124,-256 310.4124,-292"/>
<text text-anchor="middle" x="276.348" y="-271" font-family="Helvetica,sans-Serif" font-size="10.00" fill="#000000">Category</text>
</g>
<!-- A6&#45;&gt;A5 -->
<g id="edge5" class="edge">
<title>A6&#45;&gt;A5</title>
<path fill="none" stroke="#000000" d="M276.348,-245.9076C276.348,-237.0221 276.348,-226.7714 276.348,-216.2936"/>
<polygon fill="#000000" stroke="#000000" points="276.348,-255.9322 271.8481,-245.9322 276.348,-250.9322 276.3481,-245.9322 276.3481,-245.9322 276.3481,-245.9322 276.348,-250.9322 280.8481,-245.9323 276.348,-255.9322 276.348,-255.9322"/>
<polygon fill="#000000" stroke="#000000" points="276.348,-206.2153 280.8481,-216.2153 276.348,-211.2153 276.3481,-216.2153 276.3481,-216.2153 276.3481,-216.2153 276.348,-211.2153 271.8481,-216.2154 276.348,-206.2153 276.348,-206.2153"/>
</g>
</g>
</svg>
