<?xml version="1.0" encoding="UTF-8" standalone="no"?>
<!DOCTYPE svg PUBLIC "-//W3C//DTD SVG 1.1//EN"
 "http://www.w3.org/Graphics/SVG/1.1/DTD/svg11.dtd">
<!-- Generated by graphviz version 2.40.1 (20161225.0304)
 -->
<!-- Title: G Pages: 1 -->
<svg width="170pt" height="384pt"
 viewBox="0.00 0.00 170.00 384.00" xmlns="http://www.w3.org/2000/svg" xmlns:xlink="http://www.w3.org/1999/xlink">
<g id="graph0" class="graph" transform="scale(1 1) rotate(0) translate(4 380)">
<title>G</title>
<polygon fill="#ffffff" stroke="transparent" points="-4,4 -4,-380 166,-380 166,4 -4,4"/>
<!-- A0 -->
<g id="node1" class="node">
<title>A0</title>
<polygon fill="none" stroke="#000000" points="49,-344 49,-376 120,-376 120,-344 49,-344"/>
<text text-anchor="start" x="60.3345" y="-357" font-family="Helvetica,sans-Serif" font-size="10.00" fill="#000000">A:HotDrink</text>
<polygon fill="none" stroke="#000000" points="49,-264 49,-344 120,-344 120,-264 49,-264"/>
<text text-anchor="start" x="69.508" y="-325" font-family="Helvetica,sans-Serif" font-size="10.00" fill="#000000">Drink()</text>
<text text-anchor="start" x="63.394" y="-313" font-family="Helvetica,sans-Serif" font-size="10.00" fill="#000000">AddMilk()</text>
<text text-anchor="start" x="58.94" y="-301" font-family="Helvetica,sans-Serif" font-size="10.00" fill="#000000">AddSugar()</text>
<text text-anchor="start" x="75.6165" y="-289" font-family="Helvetica,sans-Serif" font-size="10.00" fill="#000000">Milk</text>
<text text-anchor="start" x="71.1625" y="-277" font-family="Helvetica,sans-Serif" font-size="10.00" fill="#000000">Sugar</text>
</g>
<!-- A2 -->
<g id="node3" class="node">
<title>A2</title>
<polygon fill="none" stroke="#000000" points="0,-182 0,-214 78,-214 78,-182 0,-182"/>
<text text-anchor="start" x="9.8255" y="-195" font-family="Helvetica,sans-Serif" font-size="10.00" fill="#000000">CupOfCoffee</text>
<polygon fill="none" stroke="#000000" points="0,-150 0,-182 78,-182 78,-150 0,-150"/>
<text text-anchor="start" x="16.2135" y="-163" font-family="Helvetica,sans-Serif" font-size="10.00" fill="#000000">BeanType</text>
</g>
<!-- A0&#45;&gt;A2 -->
<g id="edge1" class="edge">
<title>A0&#45;&gt;A2</title>
<path fill="none" stroke="#000000" d="M62.576,-254.2996C58.0415,-240.3939 53.4486,-226.3092 49.5363,-214.3113"/>
<polygon fill="none" stroke="#000000" points="59.2689,-255.4479 65.6968,-263.8701 65.9241,-253.2777 59.2689,-255.4479"/>
</g>
<!-- A3 -->
<g id="node4" class="node">
<title>A3</title>
<polygon fill="none" stroke="#000000" points="96,-182 96,-214 162,-214 162,-182 96,-182"/>
<text text-anchor="start" x="105.939" y="-195" font-family="Helvetica,sans-Serif" font-size="10.00" fill="#000000">CupOfTea</text>
<polygon fill="none" stroke="#000000" points="96,-150 96,-182 162,-182 162,-150 96,-150"/>
<text text-anchor="start" x="108.1585" y="-163" font-family="Helvetica,sans-Serif" font-size="10.00" fill="#000000">LeafType</text>
</g>
<!-- A0&#45;&gt;A3 -->
<g id="edge3" class="edge">
<title>A0&#45;&gt;A3</title>
<path fill="none" stroke="#000000" d="M105.424,-254.2996C109.9585,-240.3939 114.5514,-226.3092 118.4637,-214.3113"/>
<polygon fill="none" stroke="#000000" points="102.0759,-253.2777 102.3032,-263.8701 108.7311,-255.4479 102.0759,-253.2777"/>
</g>
<!-- A1 -->
<g id="node2" class="node">
<title>A1</title>
<polygon fill="none" stroke="#000000" points="58,-68 58,-100 111,-100 111,-68 58,-68"/>
<text text-anchor="start" x="73.942" y="-81" font-family="Helvetica,sans-Serif" font-size="10.00" fill="#000000">ICup</text>
<polygon fill="none" stroke="#000000" points="58,0 58,-68 111,-68 111,0 58,0"/>
<text text-anchor="start" x="70.064" y="-49" font-family="Helvetica,sans-Serif" font-size="10.00" fill="#000000">Refill()</text>
<text text-anchor="start" x="68.3925" y="-37" font-family="Helvetica,sans-Serif" font-size="10.00" fill="#000000">Wash()</text>
<text text-anchor="start" x="72.5575" y="-25" font-family="Helvetica,sans-Serif" font-size="10.00" fill="#000000">Color</text>
<text text-anchor="start" x="67.553" y="-13" font-family="Helvetica,sans-Serif" font-size="10.00" fill="#000000">Volume</text>
</g>
<!-- A2&#45;&gt;A1 -->
<g id="edge2" class="edge">
<title>A2&#45;&gt;A1</title>
<path fill="none" stroke="#000000" stroke-dasharray="5,2" d="M50.0082,-149.7092C54.0911,-137.7327 58.8641,-123.7319 63.5207,-110.0725"/>
<polygon fill="#000000" stroke="#000000" points="66.8794,-100.2205 67.9119,-111.1377 65.266,-104.953 63.6526,-109.6856 63.6526,-109.6856 63.6526,-109.6856 65.266,-104.953 59.3933,-108.2335 66.8794,-100.2205 66.8794,-100.2205"/>
<text text-anchor="middle" x="47.8568" y="-126.8252" font-family="Helvetica,sans-Serif" font-size="10.00" fill="#000000">supports</text>
</g>
<!-- A3&#45;&gt;A1 -->
<g id="edge4" class="edge">
<title>A3&#45;&gt;A1</title>
<path fill="none" stroke="#000000" stroke-dasharray="5,2" d="M117.9918,-149.7092C113.9089,-137.7327 109.1359,-123.7319 104.4793,-110.0725"/>
<polygon fill="#000000" stroke="#000000" points="101.1206,-100.2205 108.6067,-108.2335 102.734,-104.953 104.3474,-109.6856 104.3474,-109.6856 104.3474,-109.6856 102.734,-104.953 100.0881,-111.1377 101.1206,-100.2205 101.1206,-100.2205"/>
<text text-anchor="middle" x="104.1427" y="-132.2799" font-family="Helvetica,sans-Serif" font-size="10.00" fill="#000000">supports</text>
</g>
</g>
</svg>
