<?xml version="1.0" encoding="UTF-8" standalone="no"?>
<!DOCTYPE svg PUBLIC "-//W3C//DTD SVG 1.1//EN"
 "http://www.w3.org/Graphics/SVG/1.1/DTD/svg11.dtd">
<!-- Generated by graphviz version 2.40.1 (20161225.0304)
 -->
<!-- Title: G Pages: 1 -->
<svg width="291pt" height="422pt"
 viewBox="0.00 0.00 291.00 422.00" xmlns="http://www.w3.org/2000/svg" xmlns:xlink="http://www.w3.org/1999/xlink">
<g id="graph0" class="graph" transform="scale(1 1) rotate(0) translate(4 418)">
<title>G</title>
<polygon fill="#ffffff" stroke="transparent" points="-4,4 -4,-418 287,-418 287,4 -4,4"/>
<!-- A0 -->
<g id="node1" class="node">
<title>A0</title>
<polygon fill="none" stroke="#000000" points="27,-318 27,-350 105,-350 105,-318 27,-318"/>
<text text-anchor="start" x="40.0245" y="-331" font-family="Helvetica,sans-Serif" font-size="10.00" fill="#000000">+ICustomer</text>
<polygon fill="none" stroke="#000000" points="27,-298 27,-318 105,-318 105,-298 27,-298"/>
<polygon fill="none" stroke="#000000" points="27,-266 27,-298 105,-298 105,-266 27,-266"/>
<text text-anchor="start" x="36.691" y="-279" font-family="Helvetica,sans-Serif" font-size="10.00" fill="#000000">+Greet():void</text>
</g>
<!-- A1 -->
<g id="node2" class="node">
<title>A1</title>
<polygon fill="none" stroke="#000000" points="0,-114 0,-146 132,-146 132,-114 0,-114"/>
<text text-anchor="start" x="41.414" y="-127" font-family="Helvetica,sans-Serif" font-size="10.00" fill="#000000">+Customer</text>
<polygon fill="none" stroke="#000000" points="0,-70 0,-114 132,-114 132,-70 0,-70"/>
<text text-anchor="start" x="36.9655" y="-95" font-family="Helvetica,sans-Serif" font-size="10.00" fill="#000000">+name:string</text>
<text text-anchor="start" x="9.891" y="-83" font-family="Helvetica,sans-Serif" font-size="10.00" fill="#000000">&#45;creditCardNumber:string</text>
<polygon fill="none" stroke="#000000" points="0,-26 0,-70 132,-70 132,-26 0,-26"/>
<text text-anchor="start" x="16.1395" y="-51" font-family="Helvetica,sans-Serif" font-size="10.00" fill="#000000">+CreditCardNumber:w</text>
<text text-anchor="start" x="36.691" y="-39" font-family="Helvetica,sans-Serif" font-size="10.00" fill="#000000">+Greet():void</text>
<polygon fill="none" stroke="#000000" points="0,-6 0,-26 132,-26 132,-6 0,-6"/>
</g>
<!-- A0&#45;&gt;A1 -->
<g id="edge1" class="edge">
<title>A0&#45;&gt;A1</title>
<path fill="none" stroke="#000000" d="M66,-255.8527C66,-223.5376 66,-181.6191 66,-146.3813"/>
<polygon fill="none" stroke="#000000" points="62.5001,-255.9865 66,-265.9866 69.5001,-255.9866 62.5001,-255.9865"/>
</g>
<!-- A2 -->
<g id="node3" class="node">
<title>A2</title>
<polygon fill="none" stroke="#000000" points="123,-382 123,-414 283,-414 283,-382 123,-382"/>
<text text-anchor="start" x="175.915" y="-395" font-family="Helvetica,sans-Serif" font-size="10.00" fill="#000000">+A:HotDrink</text>
<polygon fill="none" stroke="#000000" points="123,-290 123,-382 283,-382 283,-290 123,-290"/>
<text text-anchor="start" x="174.516" y="-363" font-family="Helvetica,sans-Serif" font-size="10.00" fill="#000000">+instant:bool</text>
<text text-anchor="start" x="180.3595" y="-351" font-family="Helvetica,sans-Serif" font-size="10.00" fill="#000000">+milk:bool</text>
<text text-anchor="start" x="176.7395" y="-339" font-family="Helvetica,sans-Serif" font-size="10.00" fill="#000000">+sugar:byte</text>
<text text-anchor="start" x="173.686" y="-327" font-family="Helvetica,sans-Serif" font-size="10.00" fill="#000000">+brand:string</text>
<text text-anchor="start" x="177.5795" y="-315" font-family="Helvetica,sans-Serif" font-size="10.00" fill="#000000">+size:string</text>
<text text-anchor="start" x="156.4675" y="-303" font-family="Helvetica,sans-Serif" font-size="10.00" fill="#000000">+customer:Customer</text>
<polygon fill="none" stroke="#000000" points="123,-246 123,-290 283,-290 283,-246 123,-246"/>
<text text-anchor="start" x="132.563" y="-271" font-family="Helvetica,sans-Serif" font-size="10.00" fill="#000000">+AddSugar(amount:byte):void:v</text>
<text text-anchor="start" x="167.577" y="-259" font-family="Helvetica,sans-Serif" font-size="10.00" fill="#000000">+Steam():void:a</text>
<polygon fill="none" stroke="#000000" points="123,-202 123,-246 283,-246 283,-202 123,-202"/>
<text text-anchor="start" x="199.671" y="-227" font-family="Helvetica,sans-Serif" font-size="10.00" fill="#000000">()</text>
<text text-anchor="start" x="173.2765" y="-215" font-family="Helvetica,sans-Serif" font-size="10.00" fill="#000000">(brand string)</text>
</g>
<!-- A3 -->
<g id="node4" class="node">
<title>A3</title>
<polygon fill="none" stroke="#000000" points="151,-120 151,-152 255,-152 255,-120 151,-120"/>
<text text-anchor="start" x="170.906" y="-133" font-family="Helvetica,sans-Serif" font-size="10.00" fill="#000000">+CupOfCoffee</text>
<polygon fill="none" stroke="#000000" points="151,-88 151,-120 255,-120 255,-88 151,-88"/>
<text text-anchor="start" x="164.237" y="-101" font-family="Helvetica,sans-Serif" font-size="10.00" fill="#000000">+beanType:string</text>
<polygon fill="none" stroke="#000000" points="151,-56 151,-88 255,-88 255,-56 151,-56"/>
<text text-anchor="start" x="167.577" y="-69" font-family="Helvetica,sans-Serif" font-size="10.00" fill="#000000">+Steam():void:o</text>
<polygon fill="none" stroke="#000000" points="151,0 151,-56 255,-56 255,0 151,0"/>
<text text-anchor="start" x="199.671" y="-37" font-family="Helvetica,sans-Serif" font-size="10.00" fill="#000000">()</text>
<text text-anchor="start" x="185.6335" y="-25" font-family="Helvetica,sans-Serif" font-size="10.00" fill="#000000">+(brand</text>
<text text-anchor="start" x="160.7735" y="-13" font-family="Helvetica,sans-Serif" font-size="10.00" fill="#000000">string):base(brand)</text>
</g>
<!-- A2&#45;&gt;A3 -->
<g id="edge2" class="edge">
<title>A2&#45;&gt;A3</title>
<path fill="none" stroke="#000000" d="M203,-191.6438C203,-178.2901 203,-164.9427 203,-152.3094"/>
<polygon fill="#000000" stroke="#000000" points="203,-201.8449 198.5001,-191.8449 203,-196.8449 203.0001,-191.8449 203.0001,-191.8449 203.0001,-191.8449 203,-196.8449 207.5001,-191.845 203,-201.8449 203,-201.8449"/>
</g>
</g>
</svg>
