<?xml version="1.0" encoding="UTF-8" standalone="no"?>
<!DOCTYPE svg PUBLIC "-//W3C//DTD SVG 1.1//EN"
 "http://www.w3.org/Graphics/SVG/1.1/DTD/svg11.dtd">
<!-- Generated by graphviz version 2.40.1 (20161225.0304)
 -->
<!-- Title: G Pages: 1 -->
<svg width="118pt" height="314pt"
 viewBox="0.00 0.00 118.00 314.00" xmlns="http://www.w3.org/2000/svg" xmlns:xlink="http://www.w3.org/1999/xlink">
<g id="graph0" class="graph" transform="scale(1 1) rotate(0) translate(4 310)">
<title>G</title>
<polygon fill="#ffffff" stroke="transparent" points="-4,4 -4,-310 114,-310 114,4 -4,4"/>
<!-- A0 -->
<g id="node1" class="node">
<title>A0</title>
<polygon fill="none" stroke="#000000" points="1,-274 1,-306 110,-306 110,-274 1,-274"/>
<text text-anchor="start" x="36.337" y="-287" font-family="Helvetica,sans-Serif" font-size="10.00" fill="#000000">MyClass</text>
<polygon fill="none" stroke="#000000" points="1,-242 1,-274 110,-274 110,-242 1,-242"/>
<text text-anchor="start" x="34.114" y="-255" font-family="Helvetica,sans-Serif" font-size="10.00" fill="#000000">&#45;myString</text>
<polygon fill="none" stroke="#000000" points="1,-198 1,-242 110,-242 110,-198 1,-198"/>
<text text-anchor="start" x="32.859" y="-223" font-family="Helvetica,sans-Serif" font-size="10.00" fill="#000000">+MyString</text>
<text text-anchor="start" x="10.6345" y="-211" font-family="Helvetica,sans-Serif" font-size="10.00" fill="#000000">+GetString():string:v</text>
<polygon fill="none" stroke="#000000" points="1,-166 1,-198 110,-198 110,-166 1,-166"/>
<text text-anchor="start" x="13.554" y="-179" font-family="Helvetica,sans-Serif" font-size="10.00" fill="#000000">(stringValue:string)</text>
</g>
<!-- A1 -->
<g id="node2" class="node">
<title>A1</title>
<polygon fill="none" stroke="#000000" points="0,-84 0,-116 110,-116 110,-84 0,-84"/>
<text text-anchor="start" x="18.615" y="-97" font-family="Helvetica,sans-Serif" font-size="10.00" fill="#000000">MyDerivedClass</text>
<polygon fill="none" stroke="#000000" points="0,-64 0,-84 110,-84 110,-64 0,-64"/>
<polygon fill="none" stroke="#000000" points="0,-32 0,-64 110,-64 110,-32 0,-32"/>
<text text-anchor="start" x="9.855" y="-45" font-family="Helvetica,sans-Serif" font-size="10.00" fill="#000000">+GetString():string:o</text>
<polygon fill="none" stroke="#000000" points="0,0 0,-32 110,-32 110,0 0,0"/>
<text text-anchor="start" x="13.054" y="-13" font-family="Helvetica,sans-Serif" font-size="10.00" fill="#000000">(stringValue:string)</text>
</g>
<!-- A0&#45;&gt;A1 -->
<g id="edge1" class="edge">
<title>A0&#45;&gt;A1</title>
<path fill="none" stroke="#000000" d="M55,-155.7944C55,-142.4789 55,-128.8982 55,-116.2603"/>
<polygon fill="none" stroke="#000000" points="51.5001,-155.9052 55,-165.9052 58.5001,-155.9052 51.5001,-155.9052"/>
</g>
</g>
</svg>
